<svg xmlns="http://www.w3.org/2000/svg" width="16" height="16" viewBox="0 0 16 16">
  <g fill="none" fill-rule="evenodd" transform="translate(0 2)">
    <rect width="16" height="12" fill="#555ABF" rx="2"/>
    <path fill="#E25950" d="M0,6 L0,10.0020869 C0,11.1055038 0.894513756,12 1.99406028,12 L14.0059397,12 C15.1072288,12 16,11.1017394 16,10.0020869 L16,6 L0,6 Z"/>
    <path fill="#F6F9FC" d="M0.700578834,11.5195443 C0.272079901,11.1511481 0,10.603251 0,9.9914698 L1.18180755e-17,2.0085302 C0,1.39471073 0.274698306,0.843854057 0.707308962,0.474976465 C0.731287491,0.485935124 0.75471041,0.498938254 0.777350098,0.51403138 L9,5.99579798 L0.777350098,11.4775646 C0.75292399,11.4938487 0.727226943,11.5078742 0.700578834,11.5195443 Z"/>
    <path fill="#EAEEF3" d="M9.92963196e-17,9.9914698 L1.18180755e-17,2.0085302 C0,1.39471073 0.274698306,0.843854057 0.707308962,0.474976465 C0.731283589,0.485932958 0.754708524,0.498936997 0.777350098,0.51403138 L1.61900914,1.07513741 C1.25570698,1.22496017 1,1.5826183 1,2 L1,10 C1,10.4144065 1.25207447,10.7699378 1.61125643,10.921627 L0.777350098,11.4775646 C0.75291803,11.4938526 0.727214402,11.507881 0.700559327,11.5195528 C0.272079901,11.1511481 0,10.603251 9.92963196e-17,9.9914698 Z"/>
    <circle cx="4" cy="6" r="1" fill="#F4B32E"/>
  </g>
</svg>
